<?xml version="1.0" encoding="UTF-8" standalone="no"?>
<svg
        xmlns="http://www.w3.org/2000/svg"
        version="1.1"
        id="svg2"
        viewBox="0 0 580.94054 188.57143"
        height="53.219048mm"
        width="163.95433mm">
    <defs
            id="defs4">
        <clipPath
                clipPathUnits="userSpaceOnUse"
                id="clipPath4150">
            <path
                    d="m 0,595.28 841.89,0 L 841.89,0 0,0 0,595.28 Z"
                    id="path4152"/>
        </clipPath>
        <clipPath
                clipPathUnits="userSpaceOnUse"
                id="clipPath4190">
            <path
                    d="m 213.658,365.562 23.736,0 0,-56.654 -23.736,0 0,56.654 z"
                    id="path4192"/>
        </clipPath>
    </defs>
    <metadata
            id="metadata7">
    </metadata>
    <g
            transform="translate(-81.576976,-431.89539)"
            style="display:inline"
            id="layer3"/>
    <g
            transform="translate(-81.576976,-431.89539)"
            style="display:inline"
            id="layer2">
        <path
                id="path4385"
                d="m 81.576976,431.89539 580.940534,0 -153.43389,188.57143 -351.37533,-17.56877 z"
                style="display:inline;fill:#ffffff;fill-opacity:1;fill-rule:evenodd;stroke:none;stroke-width:1px;stroke-linecap:butt;stroke-linejoin:miter;stroke-opacity:1"/>
    </g>
    <g
            transform="translate(-81.576976,-419.89539)"
            style="display:inline"
            id="layer1">
        <g
                id="g4144"
                transform="matrix(0.73107789,0,0,-0.73107789,31.66965,758.73841)"
                style="display:inline">
            <g
                    id="g4146">
                <g
                        id="g4148"
                        clip-path="url(#clipPath4150)">
                    <g
                            id="g4154"
                            transform="translate(347.4845,307.5776)">
                        <path
                                d="m 0,0 0,2.463 c -2.298,-2.908 -4.712,-5.346 -7.244,-7.315 -2.532,-1.97 -5.3,-3.436 -8.3,-4.396 -3.001,-0.961 -6.424,-1.443 -10.269,-1.443 -4.642,0 -8.804,0.963 -12.484,2.885 -3.682,1.921 -6.53,4.572 -8.546,7.948 -2.391,4.078 -3.587,9.94 -3.587,17.582 l 0,38.052 c 0,3.844 0.867,6.717 2.603,8.616 1.734,1.899 4.032,2.848 6.892,2.848 2.907,0 5.251,-0.962 7.034,-2.883 1.781,-1.923 2.673,-4.783 2.673,-8.581 l 0,-30.737 c 0,-4.455 0.374,-8.194 1.125,-11.217 0.75,-3.025 2.098,-5.393 4.045,-7.105 1.944,-1.711 4.582,-2.566 7.912,-2.566 3.235,0 6.283,0.959 9.143,2.882 2.86,1.923 4.947,4.432 6.26,7.527 1.078,2.719 1.618,8.673 1.618,17.865 l 0,23.351 c 0,3.798 0.89,6.658 2.672,8.581 1.782,1.921 4.103,2.883 6.963,2.883 2.86,0 5.158,-0.949 6.893,-2.848 1.735,-1.899 2.603,-4.772 2.603,-8.616 l 0,-55.634 c 0,-3.657 -0.834,-6.401 -2.498,-8.23 -1.665,-1.828 -3.809,-2.742 -6.435,-2.742 -2.626,0 -4.795,0.948 -6.506,2.848 C 0.855,-6.084 0,-3.422 0,0"
                                style="fill:#c8c7c8;fill-opacity:1;fill-rule:nonzero;stroke:none"
                                id="path4156"
                        />
                    </g>
                    <g
                            id="g4158"
                            transform="translate(399.8701,335.3605)">
                        <path
                                d="m 0,0 c 0,-7.644 1.746,-13.516 5.239,-17.618 3.493,-4.105 8.077,-6.155 13.751,-6.155 4.829,0 8.991,2.098 12.485,6.295 3.492,4.196 5.24,10.21 5.24,18.041 0,5.064 -0.728,9.424 -2.181,13.082 -1.454,3.657 -3.517,6.482 -6.189,8.475 -2.673,1.992 -5.792,2.989 -9.355,2.989 -3.657,0 -6.917,-0.997 -9.776,-2.989 C 6.353,20.127 4.103,17.243 2.462,13.469 0.82,9.695 0,5.205 0,0 m -0.914,57.042 0,-29.33 c 3.61,3.75 7.29,6.623 11.042,8.615 3.751,1.993 8.393,2.991 13.926,2.991 6.377,0 11.968,-1.513 16.775,-4.538 4.806,-3.024 8.533,-7.409 11.184,-13.152 2.648,-5.744 3.973,-12.556 3.973,-20.433 0,-5.814 -0.738,-11.148 -2.216,-16 -1.476,-4.854 -3.622,-9.062 -6.435,-12.625 -2.813,-3.565 -6.225,-6.319 -10.233,-8.265 -4.01,-1.945 -8.43,-2.918 -13.259,-2.918 -2.954,0 -5.731,0.351 -8.335,1.054 -2.601,0.704 -4.817,1.629 -6.646,2.779 -1.829,1.149 -3.388,2.332 -4.677,3.552 -1.291,1.218 -2.989,3.046 -5.099,5.486 l 0,-1.899 c 0,-3.612 -0.868,-6.343 -2.603,-8.195 -1.735,-1.852 -3.938,-2.777 -6.611,-2.777 -2.72,0 -4.889,0.925 -6.506,2.777 -1.618,1.852 -2.427,4.583 -2.427,8.195 l 0,83.839 c 0,3.891 0.785,6.833 2.356,8.826 1.571,1.992 3.763,2.99 6.577,2.99 2.954,0 5.228,-0.95 6.822,-2.85 1.594,-1.898 2.392,-4.607 2.392,-8.122"
                                style="fill:#c8c7c8;fill-opacity:1;fill-rule:nonzero;stroke:none"
                                id="path4160"
                        />
                    </g>
                    <g
                            id="g4162"
                            transform="translate(490.4608,363.9162)">
                        <path
                                d="m 0,0 0,-55.495 c 0,-3.844 -0.914,-6.752 -2.743,-8.721 -1.829,-1.969 -4.15,-2.952 -6.963,-2.952 -2.814,0 -5.099,1.007 -6.858,3.023 -1.758,2.016 -2.637,4.899 -2.637,8.65 l 0,54.932 c 0,3.798 0.879,6.658 2.637,8.581 1.759,1.922 4.044,2.883 6.858,2.883 2.813,0 5.134,-0.961 6.963,-2.883 C -0.914,6.095 0,3.422 0,0 m -9.495,19.834 c -2.673,0 -4.959,0.82 -6.857,2.463 -1.9,1.64 -2.849,3.96 -2.849,6.962 0,2.719 0.972,4.958 2.918,6.717 1.946,1.758 4.209,2.638 6.788,2.638 2.485,0 4.688,-0.799 6.611,-2.393 C -0.962,34.628 0,32.306 0,29.259 0,26.305 -0.938,23.995 -2.813,22.332 -4.689,20.667 -6.917,19.834 -9.495,19.834"
                                style="fill:#c8c7c8;fill-opacity:1;fill-rule:nonzero;stroke:none"
                                id="path4164"
                        />
                    </g>
                    <g
                            id="g4166"
                            transform="translate(508.6003,308.4216)">
                        <path
                                d="m 0,0 0,83.276 c 0,3.844 0.855,6.752 2.568,8.721 1.71,1.97 4.019,2.956 6.927,2.956 2.907,0 5.251,-0.975 7.034,-2.919 1.781,-1.946 2.672,-4.866 2.672,-8.758 L 19.201,0 c 0,-3.892 -0.903,-6.81 -2.707,-8.756 -1.806,-1.945 -4.139,-2.918 -6.999,-2.918 -2.813,0 -5.099,1.008 -6.858,3.024 C 0.88,-6.635 0,-3.752 0,0"
                                style="fill:#c8c7c8;fill-opacity:1;fill-rule:nonzero;stroke:none"
                                id="path4168"
                        />
                    </g>
                    <g
                            id="g4170"
                            transform="translate(565.1424,363.9162)">
                        <path
                                d="m 0,0 0,-55.495 c 0,-3.844 -0.914,-6.752 -2.743,-8.721 -1.829,-1.969 -4.15,-2.952 -6.963,-2.952 -2.814,0 -5.099,1.007 -6.858,3.023 -1.758,2.016 -2.637,4.899 -2.637,8.65 l 0,54.932 c 0,3.798 0.879,6.658 2.637,8.581 1.759,1.922 4.044,2.883 6.858,2.883 2.813,0 5.134,-0.961 6.963,-2.883 C -0.914,6.095 0,3.422 0,0 m -9.495,19.834 c -2.673,0 -4.959,0.82 -6.857,2.463 -1.9,1.64 -2.849,3.96 -2.849,6.962 0,2.719 0.972,4.958 2.918,6.717 1.946,1.758 4.209,2.638 6.788,2.638 2.485,0 4.688,-0.799 6.611,-2.393 C -0.961,34.628 0,32.306 0,29.259 0,26.305 -0.938,23.995 -2.813,22.332 -4.689,20.667 -6.917,19.834 -9.495,19.834"
                                style="fill:#c8c7c8;fill-opacity:1;fill-rule:nonzero;stroke:none"
                                id="path4172"
                        />
                    </g>
                    <g
                            id="g4174"
                            transform="translate(646.8006,321.8563)">
                        <path
                                d="m 0,0 c 0,-5.299 -1.29,-9.835 -3.868,-13.61 -2.58,-3.775 -6.39,-6.635 -11.43,-8.581 -5.041,-1.944 -11.172,-2.918 -18.392,-2.918 -6.893,0 -12.801,1.055 -17.724,3.165 -4.924,2.11 -8.558,4.748 -10.902,7.912 -2.345,3.166 -3.517,6.342 -3.517,9.531 0,2.11 0.75,3.914 2.251,5.415 1.5,1.501 3.399,2.25 5.697,2.25 2.015,0 3.563,-0.491 4.642,-1.476 1.078,-0.985 2.11,-2.368 3.095,-4.151 1.969,-3.422 4.325,-5.977 7.069,-7.665 2.742,-1.688 6.481,-2.532 11.217,-2.532 3.845,0 6.998,0.855 9.461,2.567 2.461,1.711 3.692,3.669 3.692,5.873 0,3.376 -1.278,5.839 -3.833,7.384 -2.557,1.549 -6.764,3.025 -12.625,4.432 -6.612,1.64 -11.992,3.365 -16.142,5.17 -4.149,1.804 -7.467,4.184 -9.952,7.139 -2.486,2.953 -3.728,6.587 -3.728,10.901 0,3.845 1.149,7.479 3.446,10.901 2.297,3.423 5.685,6.155 10.164,8.196 4.477,2.039 9.882,3.058 16.212,3.058 4.97,0 9.435,-0.516 13.398,-1.546 3.962,-1.032 7.268,-2.416 9.918,-4.15 2.648,-1.736 4.664,-3.658 6.049,-5.768 1.382,-2.11 2.074,-4.173 2.074,-6.189 0,-2.205 -0.739,-4.01 -2.215,-5.417 -1.478,-1.406 -3.576,-2.108 -6.295,-2.108 -1.97,0 -3.647,0.563 -5.03,1.688 -1.383,1.125 -2.965,2.813 -4.747,5.064 -1.454,1.873 -3.165,3.376 -5.134,4.501 -1.969,1.126 -4.642,1.688 -8.018,1.688 -3.471,0 -6.354,-0.739 -8.651,-2.216 -2.298,-1.477 -3.447,-3.318 -3.447,-5.522 0,-2.016 0.844,-3.669 2.532,-4.958 1.688,-1.289 3.962,-2.357 6.823,-3.201 2.859,-0.844 6.798,-1.875 11.816,-3.095 5.954,-1.453 10.819,-3.189 14.594,-5.203 3.774,-2.017 6.635,-4.397 8.581,-7.139 C -0.974,6.646 0,3.517 0,0"
                                style="fill:#c8c7c8;fill-opacity:1;fill-rule:nonzero;stroke:none"
                                id="path4176"
                        />
                    </g>
                    <g
                            id="g4178"
                            transform="translate(281.5536,321.0405)">
                        <path
                                d="m 0,0 c -3.436,3.135 -8.761,2.894 -11.896,-0.542 -1.827,-1.999 -4.137,-3.613 -6.869,-4.789 -2.804,-1.209 -5.799,-1.821 -8.909,-1.821 -6.549,0 -11.776,2.178 -16.446,6.854 3.239,-3.301 3.211,-8.6 -0.074,-11.867 -1.644,-1.634 -3.792,-2.449 -5.939,-2.449 -2.162,0 -4.326,0.829 -5.971,2.482 7.829,-7.871 17.395,-11.862 28.43,-11.862 5.417,0 10.661,1.075 15.579,3.2 4.937,2.127 9.187,5.123 12.634,8.898 C 3.677,-8.463 3.433,-3.135 0,0"
                                style="fill:#39327a;fill-opacity:1;fill-rule:nonzero;stroke:none"
                                id="path4180"
                        />
                    </g>
                    <g
                            id="g4182"
                            transform="translate(282.1712,365.3154)">
                        <path
                                d="m 0,0 c -0.783,0.755 -1.583,1.482 -2.383,2.158 -7.534,6.381 -16.25,9.617 -25.909,9.617 -10.992,0 -20.527,-3.879 -28.339,-11.528 3.32,3.194 8.603,3.127 11.842,-0.169 3.259,-3.314 3.214,-8.648 -0.104,-11.907 4.694,4.612 9.968,6.762 16.601,6.762 5.718,0 10.493,-1.788 15.023,-5.628 0.522,-0.44 1.05,-0.918 1.569,-1.42 1.634,-1.578 3.742,-2.364 5.847,-2.364 2.207,0 4.408,0.862 6.061,2.572 C 3.439,-8.561 3.343,-3.231 0,0"
                                style="fill:#abdbe6;fill-opacity:1;fill-rule:nonzero;stroke:none"
                                id="path4184"
                        />
                    </g>
                    <g
                            id="g4186">
                        <g
                                id="g4188"/>
                        <g
                                id="g4194">
                            <g
                                    clip-path="url(#clipPath4190)"
                                    id="g4196">
                                <g
                                        transform="translate(225.3714,353.5876)"
                                        id="g4198">
                                    <path
                                            d="M 0,0 C -3.262,3.315 -3.217,8.648 0.101,11.907 0.124,11.93 0.146,11.952 0.168,11.975 0.146,11.952 0.124,11.932 0.101,11.91 -7.739,4.202 -11.714,-5.263 -11.714,-16.224 c 0,-11.012 3.97,-20.587 11.793,-28.455 -3.279,3.298 -3.265,8.629 0.033,11.91 3.299,3.279 8.629,3.265 11.908,-0.034 l 0.003,0 c -4.702,4.727 -6.895,9.996 -6.895,16.579 0,6.453 2.156,11.576 6.779,16.123 C 8.592,-3.363 3.262,-3.318 0,0"
                                            style="fill:#4fbcdd;fill-opacity:1;fill-rule:nonzero;stroke:none"
                                            id="path4200"
                                    />
                                </g>
                            </g>
                        </g>
                    </g>
                    <g
                            id="g4202"
                            transform="translate(237.3826,365.3937)">
                        <path
                                d="m 0,0 c -3.239,3.296 -8.522,3.363 -11.843,0.169 -0.022,-0.023 -0.045,-0.045 -0.067,-0.068 -3.318,-3.259 -3.363,-8.592 -0.101,-11.907 3.262,-3.318 8.592,-3.363 11.907,-0.101 C 3.214,-8.648 3.259,-3.315 0,0"
                                style="fill:#abdbe6;fill-opacity:1;fill-rule:nonzero;stroke:none"
                                id="path4204"
                        />
                    </g>
                    <g
                            id="g4206"
                            transform="translate(237.3826,365.3937)">
                        <path
                                d="m 0,0 c -3.239,3.296 -8.522,3.363 -11.843,0.169 -0.022,-0.023 -0.045,-0.045 -0.067,-0.068 -3.318,-3.259 -3.363,-8.592 -0.101,-11.907 3.262,-3.318 8.592,-3.363 11.907,-0.101 C 3.214,-8.648 3.259,-3.315 0,0"
                                style="fill:#00a9d7;fill-opacity:1;fill-rule:nonzero;stroke:none"
                                id="path4208"
                        />
                    </g>
                    <g
                            id="g4210"
                            transform="translate(237.36,308.875)">
                        <path
                                d="M 0,0 C 3.284,3.267 3.312,8.567 0.073,11.868 0.059,11.882 0.048,11.893 0.034,11.91 l -0.003,0 c -3.279,3.298 -8.609,3.312 -11.907,0.033 -3.299,-3.281 -3.313,-8.611 -0.034,-11.91 1.645,-1.653 3.809,-2.481 5.971,-2.481 2.147,0 4.294,0.814 5.939,2.448"
                                style="fill:#39327a;fill-opacity:1;fill-rule:nonzero;stroke:none"
                                id="path4212"
                        />
                    </g>
                    <g
                            id="g4214"
                            transform="translate(237.36,308.875)">
                        <path
                                d="M 0,0 C 3.284,3.267 3.312,8.567 0.073,11.868 0.059,11.882 0.048,11.893 0.034,11.91 l -0.003,0 c -3.279,3.298 -8.609,3.312 -11.907,0.033 -3.299,-3.281 -3.313,-8.611 -0.034,-11.91 1.645,-1.653 3.809,-2.481 5.971,-2.481 2.147,0 4.294,0.814 5.939,2.448"
                                style="fill:#315b98;fill-opacity:1;fill-rule:nonzero;stroke:none"
                                id="path4216"
                        />
                    </g>
                </g>
            </g>
        </g>
    </g>
</svg>
